<svg xmlns="http://www.w3.org/2000/svg"><defs><symbol id="gsi-0" viewBox="0 0 24 24"><path d="M20 6L9 17l-5-5"/></symbol><symbol id="gsi-1" viewBox="0 0 24 24"><rect x="3" y="3" width="7" height="7" rx="1"/><rect x="14" y="3" width="7" height="7" rx="1"/><rect x="3" y="14" width="7" height="7" rx="1"/><rect x="14" y="14" width="7" height="7" rx="1"/></symbol><symbol id="gsi-2" viewBox="0 0 24 24"><rect x="1" y="3" width="15" height="13" rx="1"/><path d="M16 8h4l3 5v4h-7V8z"/><circle cx="5.5" cy="18.5" r="2.5"/><circle cx="18.5" cy="18.5" r="2.5"/></symbol><symbol id="gsi-3" viewBox="0 0 24 24"><path d="M21 16V8a2 2 0 0 0-1-1.73l-7-4a2 2 0 0 0-2 0l-7 4A2 2 0 0 0 3 8v8a2 2 0 0 0 1 1.73l7 4a2 2 0 0 0 2 0l7-4A2 2 0 0 0 21 16z"/><polyline points="3.27 6.96 12 12.01 20.73 6.96"/><line x1="12" y1="22.08" x2="12" y2="12"/></symbol><symbol id="gsi-4" viewBox="0 0 24 24"><path d="M22 19a2 2 0 0 1-2 2H4a2 2 0 0 1-2-2V5a2 2 0 0 1 2-2h5l2 3h9a2 2 0 0 1 2 2z"/></symbol><symbol id="gsi-5" viewBox="0 0 24 24"><path d="M18 8A6 6 0 0 0 6 8c0 7-3 9-3 9h18s-3-2-3-9"/><path d="M13.73 21a2 2 0 0 1-3.46 0"/></symbol><symbol id="gsi-6" viewBox="0 0 24 24"><path d="M9 21H5a2 2 0 0 1-2-2V5a2 2 0 0 1 2-2h4"/><polyline points="16 17 21 12 16 7"/><line x1="21" y1="12" x2="9" y2="12"/></symbol><symbol id="gsi-7" viewBox="0 0 24 24"><circle cx="12" cy="12" r="10"/><line x1="12" y1="8" x2="12" y2="12"/><line x1="12" y1="16" x2="12.01" y2="16"/></symbol><symbol id="gsi-8" viewBox="0 0 24 24"><path d='M21 15v4a2 2 0 0 1-2 2H5a2 2 0 0 1-2-2v-4'/><polyline points='17 8 12 3 7 8'/><line x1='12' y1='3' x2='12' y2='15'/></symbol><symbol id="gsi-9" viewBox="0 0 24 24"><circle cx="11" cy="11" r="8"/><path d="m21 21-4.35-4.35"/></symbol><symbol id="gsi-10" viewBox="0 0 24 24"><circle cx="12" cy="12" r="10"/><line x1="12" y1="8" x2="12" y2="12"/></symbol><symbol id="gsi-11" viewBox="0 0 24 24"><path d='M14 2H6a2 2 0 0 0-2 2v16a2 2 0 0 0 2 2h12a2 2 0 0 0 2-2V8z'/><polyline points='14 2 14 8 20 8'/></symbol><symbol id="gsi-12" viewBox="0 0 24 24"><path d="M14 2H6a2 2 0 0 0-2 2v16a2 2 0 0 0 2 2h12a2 2 0 0 0 2-2V8z"/><polyline points="14 2 14 8 20 8"/></symbol><symbol id="gsi-13" viewBox="0 0 24 24"><rect x="3" y="11" width="18" height="11" rx="2"/><path d="M7 11V7a5 5 0 0 1 10 0v4"/></symbol><symbol id="gsi-14" viewBox="0 0 24 24"><line x1="12" y1="5" x2="12" y2="19"/><line x1="5" y1="12" x2="19" y2="12"/></symbol></defs></svg>